HIERARCHY
ROOT Hips
{
 OFFSET 0.000000 0.000000 0.000000
 CHANNELS 6 Xposition Yposition Zposition Yrotation Xrotation Zrotation
 JOINT Chest
 {
  OFFSET 0.000000 9.585900 0.002600
  CHANNELS 3 Yrotation Xrotation Zrotation
  JOINT Chest2
  {
   OFFSET 0.000000 9.601200 -0.005300
   CHANNELS 3 Yrotation Xrotation Zrotation
   JOINT Chest3
   {
    OFFSET 0.000000 9.561800 0.000000
    CHANNELS 3 Yrotation Xrotation Zrotation
    JOINT Chest4
    {
     OFFSET 0.000000 9.552100 0.000000
     CHANNELS 3 Yrotation Xrotation Zrotation
     JOINT Neck
     {
      OFFSET 0.000000 14.453000 0.000000
      CHANNELS 3 Yrotation Xrotation Zrotation
      JOINT Head
      {
       OFFSET 0.000000 8.936500 -0.011300
       CHANNELS 3 Yrotation Xrotation Zrotation
       End Site
       {
        OFFSET 0.000000 17.073600 -0.006000
       }
      }
     }
     JOINT RightCollar
     {
      OFFSET -2.921100 9.558500 0.000000
      CHANNELS 3 Yrotation Xrotation Zrotation
      JOINT RightShoulder
      {
       OFFSET -13.519700 0.000000 0.000000
       CHANNELS 3 Yrotation Xrotation Zrotation
       JOINT RightElbow
       {
        OFFSET 0.000000 -29.696600 0.000000
        CHANNELS 3 Yrotation Xrotation Zrotation
        JOINT RightWrist
        {
         OFFSET 0.000000 -24.004700 0.000000
         CHANNELS 3 Yrotation Xrotation Zrotation
         End Site
         {
          OFFSET 0.000000 -17.728500 0.000000
         }
        }
       }
      }
     }
     JOINT LeftCollar
     {
      OFFSET 2.921100 9.558500 0.000000
      CHANNELS 3 Yrotation Xrotation Zrotation
      JOINT LeftShoulder
      {
       OFFSET 13.519700 0.000000 0.000000
       CHANNELS 3 Yrotation Xrotation Zrotation
       JOINT LeftElbow
       {
        OFFSET 0.000000 -29.696600 0.000000
        CHANNELS 3 Yrotation Xrotation Zrotation
        JOINT LeftWrist
        {
         OFFSET 0.000000 -24.004700 0.000000
         CHANNELS 3 Yrotation Xrotation Zrotation
         End Site
         {
          OFFSET 0.000000 -17.728500 0.000000
         }
        }
       }
      }
     }
    }
   }
  }
 }
 JOINT RightHip
 {
  OFFSET -7.771700 -0.012900 -0.001300
  CHANNELS 3 Yrotation Xrotation Zrotation
  JOINT RightKnee
  {
   OFFSET 0.000000 -40.869800 0.001200
   CHANNELS 3 Yrotation Xrotation Zrotation
   JOINT RightAnkle
   {
    OFFSET 0.000000 -39.717900 0.002100
    CHANNELS 3 Yrotation Xrotation Zrotation
    JOINT RightToe
    {
     OFFSET 0.000000 -4.965400 11.033500
     CHANNELS 3 Yrotation Xrotation Zrotation
     End Site
     {
      OFFSET 0.000000 -1.423100 5.872300
     }
    }
   }
  }
 }
 JOINT LeftHip
 {
  OFFSET 7.771700 -0.012900 -0.001300
  CHANNELS 3 Yrotation Xrotation Zrotation
  JOINT LeftKnee
  {
   OFFSET 0.000000 -40.869800 0.001200
   CHANNELS 3 Yrotation Xrotation Zrotation
   JOINT LeftAnkle
   {
    OFFSET 0.000000 -39.717900 0.002100
    CHANNELS 3 Yrotation Xrotation Zrotation
    JOINT LeftToe
    {
     OFFSET 0.000000 -4.965400 11.033500
     CHANNELS 3 Yrotation Xrotation Zrotation
     End Site
     {
      OFFSET 0.000000 -1.423100 5.872300
     }
    }
   }
  }
 }
}
MOTION
Frames: 9
Frame Time: 0.008333
-14.201056 55.309247 16.294637 -178.663276 -15.604438 -1.645952 0.346039 15.027838 0.450911 0.042390 1.382790 0.056693 0.039333 2.318240 0.099399 0.383982 13.444892 0.610640 2.472114 12.319737 -6.503418 4.283922 -12.643677 -7.698199 -0.304208 -0.687555 2.741828 1.409138 -4.168096 -8.047230 -78.871845 -60.432638 109.758638 -14.341296 -5.272805 -4.222365 -6.921076 -1.529010 2.276755 9.783417 -11.159146 6.384555 69.011510 -55.733894 -100.892052 8.010436 -8.032346 9.052552 -0.575850 -59.310068 11.822954 -92.741991 87.025075 -97.157873 -10.984384 -21.923181 14.382072 0.059502 -0.116986 0.018983 10.705777 -55.806221 -6.650777 111.246299 77.024732 108.437796 -7.474340 -23.665470 1.858569 0.049663 0.242642 0.021217
-14.202152 55.309962 16.294040 -178.662340 -15.606416 -1.649561 0.358755 15.033503 0.456753 0.040210 1.381818 0.055672 0.044398 2.320532 0.101729 0.381091 13.442831 0.613369 2.561462 12.265829 -6.467960 4.325517 -12.679166 -7.684201 -0.298413 -0.700406 2.746661 1.419956 -4.172973 -8.053074 -78.903582 -60.434453 109.774661 -14.346348 -5.275419 -4.226713 -6.910608 -1.574791 2.302514 9.924272 -11.221666 6.431215 69.612496 -55.695987 -101.527143 8.050919 -8.149855 8.995989 -0.565295 -59.308122 11.819946 -92.706261 87.023391 -97.112636 -11.010979 -21.920277 14.390241 0.058624 -0.115625 0.019061 10.706868 -55.801842 -6.649345 111.231791 77.025899 108.425785 -7.474781 -23.669684 1.858773 0.048952 0.246331 0.022867
-14.202372 55.310639 16.293197 -178.663789 -15.608841 -1.658337 0.371535 15.038122 0.464498 0.039156 1.380931 0.058840 0.056351 2.324309 0.100474 0.373615 13.440171 0.618203 2.629560 12.225019 -6.436120 4.387305 -12.723245 -7.667355 -0.303565 -0.706226 2.749109 1.439128 -4.185236 -8.053530 -78.934639 -60.437090 109.792785 -14.350748 -5.280326 -4.231644 -6.896156 -1.622061 2.327259 10.041851 -11.269954 6.489372 70.236440 -55.654944 -102.207901 8.095983 -8.288903 8.937871 -0.560716 -59.305157 11.813260 -92.705810 87.029899 -97.115033 -10.923980 -21.926025 14.376394 0.077230 -0.121653 0.021718 10.698506 -55.799500 -6.635002 111.236859 77.027706 108.427565 -7.464449 -23.674979 1.859919 0.039057 0.248883 0.023237
-14.203765 55.310955 16.292912 -178.660607 -15.606773 -1.662116 0.376452 15.036799 0.468292 0.036774 1.380732 0.060715 0.057474 2.324632 0.100986 0.383035 13.442737 0.622150 2.689100 12.187813 -6.404662 4.448842 -12.760567 -7.649540 -0.302454 -0.722275 2.751430 1.444077 -4.190467 -8.053589 -78.939082 -60.439710 109.780663 -14.348176 -5.292724 -4.225054 -6.877582 -1.704959 2.378920 10.134724 -11.268113 6.534062 70.881083 -55.604989 -102.931869 8.151640 -8.467796 8.874923 -0.551815 -59.307497 11.804121 -92.683072 87.028790 -97.089486 -10.903514 -21.925707 14.376115 0.086014 -0.122159 0.025514 10.692921 -55.801450 -6.630963 111.232002 77.029436 108.417957 -7.457236 -23.673508 1.860064 0.035660 0.248098 0.024661
-14.206378 55.311188 16.292143 -178.665865 -15.607077 -1.657515 0.384586 15.037364 0.466836 0.034064 1.380016 0.060734 0.058014 2.324563 0.101474 0.399254 13.443396 0.629946 2.706378 12.172138 -6.392842 4.537071 -12.803773 -7.621338 -0.307103 -0.733047 2.753631 1.446847 -4.197769 -8.054873 -78.938047 -60.443856 109.769868 -14.347170 -5.295269 -4.229132 -6.883351 -1.745632 2.395795 10.228528 -11.300018 6.610924 71.540186 -55.541880 -103.693157 8.218427 -8.693002 8.804631 -0.528390 -59.311080 11.791138 -92.708896 87.022172 -97.104806 -10.950652 -21.914329 14.386353 0.100385 -0.122933 0.029236 10.716571 -55.798300 -6.644264 111.229862 77.031619 108.417486 -7.460901 -23.672835 1.863181 0.037716 0.246157 0.024514
-14.208304 55.311120 16.291786 -178.668066 -15.603698 -1.659033 0.388464 15.033757 0.470715 0.031486 1.379773 0.059471 0.057964 2.324185 0.102045 0.399242 13.442254 0.633076 2.784869 12.149204 -6.352515 4.527343 -12.794945 -7.628166 -0.289929 -0.744144 2.750635 1.438173 -4.197386 -8.051115 -79.008789 -60.447544 109.852896 -14.352939 -5.270966 -4.261195 -6.876032 -1.764645 2.401644 10.309222 -11.343311 6.700578 72.205896 -55.464420 -104.480352 8.291126 -8.963577 8.727691 -0.519292 -59.318042 11.787553 -92.722505 87.020343 -97.109876 -10.979618 -21.903106 14.389791 0.080909 -0.128616 0.032055 10.740971 -55.802846 -6.656183 111.241346 77.031429 108.433829 -7.466215 -23.668513 1.872013 0.036543 0.240295 0.022381
-14.210657 55.310827 16.291686 -178.663602 -15.597544 -1.660918 0.380825 15.026763 0.469342 0.034467 1.380937 0.060098 0.057276 2.323782 0.102828 0.398166 13.441427 0.635546 2.861811 12.137095 -6.309965 4.602788 -12.805792 -7.601618 -0.273623 -0.761314 2.751981 1.425149 -4.183287 -8.053881 -79.052221 -60.449034 109.900612 -14.359176 -5.267499 -4.250189 -6.868670 -1.784672 2.408197 10.371267 -11.375367 6.792493 72.873628 -55.377885 -105.285615 8.367208 -9.278741 8.648731 -0.517093 -59.325780 11.788709 -92.730908 87.016619 -97.111502 -11.036906 -21.893038 14.399697 0.071188 -0.126077 0.035598 10.749197 -55.809594 -6.664175 111.239222 77.030897 108.432229 -7.468714 -23.665436 1.875413 0.036007 0.238427 0.022288
-14.213886 55.310557 16.291033 -178.657503 -15.593719 -1.658929 0.376398 15.024904 0.464502 0.032674 1.379308 0.061339 0.056486 2.324065 0.103836 0.397780 13.440821 0.635941 2.924886 12.136430 -6.273542 4.691307 -12.809814 -7.565044 -0.268839 -0.766811 2.753148 1.423206 -4.194169 -8.050453 -79.047356 -60.451688 109.893919 -14.355120 -5.279122 -4.237330 -6.850662 -1.853171 2.435149 10.382882 -11.327379 6.825489 73.569520 -55.342267 -106.111743 8.439916 -9.626268 8.570055 -0.506811 -59.331541 11.777866 -92.753533 87.004326 -97.125108 -11.080886 -21.887306 14.408354 0.047295 -0.125919 0.036563 10.755010 -55.812844 -6.675626 111.234518 77.030099 108.426941 -7.469723 -23.661683 1.872860 0.036347 0.236201 0.025718
-14.215775 55.310309 16.290174 -178.655953 -15.589873 -1.664091 0.378895 15.021438 0.468680 0.031281 1.378574 0.061598 0.057447 2.323033 0.102889 0.397044 13.439280 0.637964 2.988950 12.144432 -6.234848 4.752240 -12.799780 -7.536972 -0.267982 -0.769893 2.756301 1.422235 -4.208565 -8.047429 -79.034098 -60.453036 109.878539 -14.346847 -5.282099 -4.219475 -6.837517 -1.901320 2.454229 10.417248 -11.314391 6.935764 74.241474 -55.220824 -106.968139 8.500240 -9.974801 8.497629 -0.512910 -59.335699 11.781093 -92.760583 87.001382 -97.131931 -11.056554 -21.887724 14.401266 0.004416 -0.132175 0.036210 10.752356 -55.818636 -6.671859 111.238948 77.027109 108.433533 -7.476087 -23.659858 1.870601 0.039947 0.234142 0.027546
